# xmcd
#
# Track frame offsets: 
#        150
#        20647
#        34326
#        55574
#        72576
#        90245
#        108672
#        123574
#        141361
#        160511
#        175217
#        191747
#        204434
#        221909
#        239009
#
# Disc length: 3372 seconds
#
# Revision: 0
# Processed by: cddbd v1.5.2PL0 Copyright (c) Steve Scherf et al.
# Submitted via: ExactAudioCopy v1.0b4
#
DISCID=e00d2a0f
DTITLE=Cookies 'N' Beans - The first steps
DYEAR=2013
DGENRE=Country
TTITLE0=Sunday walk of shame
TTITLE1=Burning flags
TTITLE2=Is it ok if I cry now
TTITLE3=What if
TTITLE4=The only medicine that works is you
TTITLE5=First we take Manhattan
TTITLE6=Tomorrow such a long time away
TTITLE7=I just don't have the heart
TTITLE8=The first step (on a long way down)
TTITLE9=Kings and Queens
TTITLE10=Now it's too late
TTITLE11=The boy is mine
TTITLE12=Go tell the world
TTITLE13=Fire
TTITLE14=Sin wagon
EXTD=
EXTT0=
EXTT1=
EXTT2=
EXTT3=
EXTT4=
EXTT5=
EXTT6=
EXTT7=
EXTT8=
EXTT9=
EXTT10=
EXTT11=
EXTT12=
EXTT13=
EXTT14=
PLAYORDER=
